<?xml version="1.0" standalone="no"?>
<!DOCTYPE svg PUBLIC "-//W3C//DTD SVG 20010904//EN"
 "http://www.w3.org/TR/2001/REC-SVG-20010904/DTD/svg10.dtd">
<svg version="1.0" xmlns="http://www.w3.org/2000/svg"
 width="289.000000pt" height="320.000000pt" viewBox="0 0 289.000000 320.000000"
 preserveAspectRatio="xMidYMid meet">

<g transform="translate(0.000000,320.000000) scale(0.100000,-0.100000)"
fill="#000000" stroke="none">
<path d="M0 1600 l0 -1600 1445 0 1445 0 0 1600 0 1600 -1445 0 -1445 0 0
-1600z m2174 1203 c-5 -5 -12 -12 -16 -18 -4 -6 -8 -2 -8 8 0 9 7 17 17 17 9
0 12 -3 7 -7z m49 -27 c4 -10 1 -13 -7 -10 -8 3 -17 1 -20 -5 -4 -6 -13 -8
-21 -5 -8 4 -13 10 -10 15 3 4 12 6 20 2 8 -3 15 0 15 6 0 16 17 14 23 -3z
m-64 -40 c12 -15 9 -18 -22 -29 -14 -5 -16 -3 -8 12 6 10 7 21 4 25 -3 3 -2 6
4 6 6 0 16 -6 22 -14z m76 6 c12 -9 18 -32 7 -32 -4 0 -13 9 -20 20 -12 20 -6
26 13 12z m-20 -43 c10 -15 -1 -23 -20 -15 -9 3 -13 10 -10 16 8 13 22 13 30
-1z m-73 -19 c-23 -22 -32 -25 -32 -12 0 5 10 14 23 20 32 15 33 14 9 -8z m22
-25 c-4 -8 -11 -12 -16 -9 -6 4 -5 10 3 15 19 12 19 11 13 -6z m-414 -5 c0 -5
-5 -10 -11 -10 -5 0 -7 5 -4 10 3 6 8 10 11 10 2 0 4 -4 4 -10z m-134 -9 c-3
-5 1 -11 9 -15 8 -3 15 0 16 7 0 7 4 2 9 -11 13 -31 2 -52 -23 -48 -17 3 -21
9 -19 31 2 17 -1 24 -7 20 -6 -3 -11 -2 -11 4 0 5 6 12 13 14 18 8 19 8 13 -2z
m64 -16 c-7 -9 -15 -13 -19 -10 -3 3 1 10 9 15 21 14 24 12 10 -5z m-463 -37
c15 -6 35 -12 43 -14 22 -5 186 -90 223 -116 52 -37 66 -51 61 -60 -3 -4 3 -8
13 -8 11 0 14 -3 7 -8 -7 -4 -8 -15 -3 -27 7 -19 8 -19 8 -1 1 14 4 16 14 7 8
-6 17 -9 21 -6 3 3 2 0 -3 -6 -5 -6 -7 -17 -5 -24 4 -8 -2 -11 -18 -8 -13 2
-41 -3 -63 -11 l-40 -15 32 0 c72 -2 85 -26 18 -36 -24 -4 -50 -13 -56 -21 -6
-8 -20 -14 -30 -14 -11 0 -19 -4 -19 -10 0 -6 30 -10 69 -10 39 0 73 -5 76
-10 4 -6 1 -9 -5 -8 -12 3 -50 -54 -55 -82 -1 -8 -11 -14 -21 -13 -11 1 -23
-5 -27 -13 -5 -9 -26 -14 -65 -14 -65 0 -86 -9 -80 -36 3 -17 14 -19 118 -21
150 -2 215 -11 252 -33 17 -10 37 -16 44 -13 8 3 14 0 14 -6 0 -6 5 -11 11
-11 21 0 -33 60 -59 66 -15 4 -32 13 -39 21 -6 8 -15 14 -20 14 -12 0 -57 11
-68 17 -5 4 1 9 15 12 17 4 38 -3 73 -27 27 -18 53 -33 59 -33 5 0 25 -12 43
-26 l34 -25 -4 -150 -3 -149 -34 -39 c-114 -133 -173 -394 -163 -721 l3 -136
-60 -19 c-67 -22 -63 -15 -71 -127 -3 -36 -8 -71 -11 -77 -8 -13 -4 -14 18 -5
9 3 16 13 16 22 0 22 6 12 14 -23 4 -20 3 -25 -3 -16 -10 15 -41 8 -41 -8 0
-6 7 -8 15 -5 26 10 17 -22 -10 -34 -23 -11 -27 -34 -9 -63 4 -8 -3 -9 -24 -4
-19 4 -33 2 -37 -5 -6 -9 -10 -9 -15 1 -7 10 -12 10 -26 -2 -9 -8 -20 -14 -23
-14 -3 0 -5 -3 -4 -7 2 -4 -8 -3 -22 2 -15 6 -26 6 -30 0 -3 -5 -24 -7 -45 -5
-32 4 -40 2 -40 -11 0 -13 -6 -15 -27 -9 -16 4 -34 8 -41 8 -8 0 -12 8 -9 19
4 12 1 18 -6 15 -7 -2 -13 -9 -13 -15 -1 -7 -2 -17 -3 -24 -1 -7 -7 -6 -18 5
-13 11 -33 14 -70 12 -36 -3 -55 0 -63 10 -9 11 -9 15 -1 15 6 0 11 4 11 9 0
4 -13 7 -28 5 -21 -2 -30 2 -37 19 -6 12 -18 21 -28 21 -9 -1 -17 2 -17 7 0 5
-7 9 -16 9 -8 0 -12 5 -9 10 3 6 1 10 -5 10 -7 0 -10 7 -6 15 3 8 0 15 -6 15
-6 0 -8 3 -5 7 4 3 0 14 -8 23 -17 19 -37 141 -25 154 10 10 -5 40 -42 81 -23
27 -50 107 -71 220 -2 11 -7 27 -10 35 -13 35 -40 136 -38 144 1 5 -4 6 -12 3
-11 -4 -14 8 -14 51 0 51 -29 199 -53 277 -11 33 -6 399 5 459 5 24 15 40 26
43 21 6 29 32 29 94 0 84 48 194 130 297 33 43 57 60 134 97 52 25 104 45 115
45 12 0 21 5 21 10 0 6 3 9 8 8 4 0 23 6 42 15 41 19 156 22 197 5z m510 -27
c-1 -16 -5 -27 -9 -24 -5 2 -8 -3 -8 -11 0 -11 8 -14 36 -11 19 3 33 1 30 -4
-3 -5 1 -14 9 -21 8 -7 15 -20 16 -29 0 -11 2 -12 6 -3 3 7 -1 20 -8 28 -15
18 -21 44 -10 44 3 0 11 -10 16 -22 10 -24 42 -32 38 -10 -3 11 9 16 30 13 12
-2 8 17 -5 21 -7 3 -8 7 -2 11 5 3 16 2 23 -2 21 -13 -8 -65 -38 -69 -17 -3
-20 -6 -11 -12 7 -4 14 -18 15 -31 1 -13 8 -25 16 -27 11 -3 11 -1 -1 7 -11 8
-12 11 -2 11 8 0 16 -9 19 -21 3 -11 11 -18 19 -15 7 3 16 1 19 -4 3 -5 12 -7
20 -3 29 10 46 -4 35 -31 -7 -19 -5 -26 8 -31 10 -3 21 0 28 9 16 22 19 20 22
-14 2 -22 -2 -30 -13 -30 -9 0 -13 4 -10 10 3 6 -1 7 -10 4 -14 -6 -14 -8 1
-19 14 -10 12 -11 -17 -7 -28 4 -32 3 -22 -9 8 -11 8 -17 -3 -27 -11 -10 -14
-10 -14 1 0 8 -9 13 -22 12 -13 -2 -22 -7 -21 -13 1 -5 -7 -18 -19 -28 -20
-19 -21 -19 -14 4 5 13 3 22 -3 22 -12 0 -45 69 -42 88 1 7 -4 11 -11 10 -8
-2 -13 7 -13 24 -1 15 -9 36 -19 47 -15 17 -15 20 -2 23 11 2 13 7 6 18 -8 12
-12 12 -18 3 -6 -9 -20 1 -48 34 -50 60 -57 84 -30 100 31 18 35 16 33 -16z
m59 -4 c8 3 14 1 14 -5 0 -5 -11 -12 -25 -14 -20 -4 -25 -1 -25 15 0 16 3 18
11 10 6 -6 18 -9 25 -6z m656 -33 c19 -6 19 -7 5 -16 -10 -5 -17 -16 -17 -25
0 -12 -3 -13 -13 -4 -8 6 -18 7 -22 3 -5 -4 -5 -1 -1 6 4 7 12 10 17 7 5 -4 9
-1 9 4 0 6 0 13 0 16 0 3 -3 5 -6 4 -8 -1 -24 22 -24 34 0 5 7 2 15 -7 8 -8
25 -18 37 -22z m-598 11 c3 -9 0 -15 -9 -15 -9 0 -12 6 -9 15 4 8 7 15 9 15 2
0 5 -7 9 -15z m666 -21 c0 -2 -7 -4 -15 -4 -8 0 -15 4 -15 10 0 5 7 7 15 4 8
-4 15 -8 15 -10z m-36 -28 c-3 -8 -12 -12 -20 -9 -17 6 -9 23 11 23 8 0 12 -6
9 -14z m51 -6 c-3 -5 -12 -10 -18 -10 -7 0 -6 4 3 10 19 12 23 12 15 0z m-620
-20 c3 -6 -1 -7 -9 -4 -18 7 -21 14 -7 14 6 0 13 -4 16 -10z m332 4 c-3 -3
-12 -4 -19 -1 -8 3 -5 6 6 6 11 1 17 -2 13 -5z m273 -38 c0 -22 -3 -27 -9 -17
-5 8 -16 11 -26 7 -18 -7 -45 9 -45 26 0 5 7 3 15 -6 9 -9 23 -12 33 -8 16 6
16 7 -1 10 -14 3 -16 7 -7 17 18 22 40 6 40 -29z m-580 0 c0 -3 -4 -8 -10 -11
-5 -3 -10 -1 -10 4 0 6 5 11 10 11 6 0 10 -2 10 -4z m597 -18 c-3 -8 -6 -5 -6
6 -1 11 2 17 5 13 3 -3 4 -12 1 -19z m-513 -13 c-4 -8 -11 -12 -16 -9 -6 4 -5
10 3 15 19 12 19 11 13 -6z m417 -7 c11 -21 11 -22 -4 -9 -10 7 -17 17 -17 22
0 15 9 10 21 -13z m-238 -76 c-13 -2 -23 -8 -23 -14 0 -6 -2 -9 -5 -6 -14 13
7 35 28 30 l22 -7 -22 -3z m-53 -23 c0 -5 -4 -9 -10 -9 -5 0 -10 7 -10 16 0 8
5 12 10 9 6 -3 10 -10 10 -16z m-200 -69 c0 -5 -2 -10 -4 -10 -3 0 -8 5 -11
10 -3 6 -1 10 4 10 6 0 11 -4 11 -10z m510 -4 c0 -2 -8 -10 -17 -17 -16 -13
-17 -12 -4 4 13 16 21 21 21 13z m-525 -16 c3 -5 -1 -10 -9 -10 -9 0 -16 5
-16 10 0 6 4 10 9 10 6 0 13 -4 16 -10z m44 -157 c-4 -22 2 -44 10 -39 4 3 17
-4 27 -15 14 -16 16 -24 7 -37 -8 -14 -6 -23 9 -42 21 -26 21 -77 0 -72 -8 1
-11 -2 -8 -7 4 -5 3 -11 -1 -14 -5 -2 -2 -2 5 -1 6 2 12 -1 12 -7 0 -6 7 -18
16 -26 14 -15 14 -17 0 -25 -14 -8 -14 -11 1 -34 12 -19 13 -28 4 -37 -16 -16
-14 -37 4 -37 18 0 20 -36 3 -44 -7 -2 -2 -4 11 -3 32 3 40 -29 25 -102 -6
-32 -6 -33 17 -21 23 11 23 11 4 -5 -11 -9 -19 -21 -17 -26 1 -6 -2 -8 -8 -4
-5 3 -10 1 -10 -4 0 -6 -4 -11 -9 -11 -14 0 -51 132 -51 182 0 25 -4 48 -8 50
-12 4 -40 126 -31 135 4 5 2 19 -4 33 -10 23 -15 54 -18 123 -1 15 -5 27 -9
27 -4 0 -8 16 -7 35 1 22 6 35 14 35 7 0 12 -3 12 -7z m69 -29 c2 -1 -1 -5 -7
-8 -5 -4 -15 4 -22 16 -12 22 -11 22 7 8 10 -8 20 -15 22 -16z m387 -4 c3 -5
2 -10 -4 -10 -5 0 -13 5 -16 10 -3 6 -2 10 4 10 5 0 13 -4 16 -10z m15 -30 c0
-5 -4 -10 -10 -10 -5 0 -10 5 -10 10 0 6 5 10 10 10 6 0 10 -4 10 -10z m-390
-13 c0 -2 -10 -12 -21 -23 -22 -19 -22 -19 -8 4 12 19 29 30 29 19z m383 -32
c23 -32 17 -32 -13 0 -13 14 -19 25 -14 25 5 0 17 -12 27 -25z m97 -99 c0 -3
-4 -8 -10 -11 -5 -3 -10 -1 -10 4 0 6 5 11 10 11 6 0 10 -2 10 -4z m-85 -96
c3 -5 1 -10 -4 -10 -6 0 -11 5 -11 10 0 6 2 10 4 10 3 0 8 -4 11 -10z m-2101
-206 c14 -36 7 -47 -26 -40 -70 14 -72 13 -96 -36 -34 -67 -34 -163 -2 -244
14 -34 31 -68 39 -78 18 -22 42 -20 48 4 6 22 18 26 28 10 3 -5 15 -10 26 -10
20 0 26 -24 9 -35 -5 -3 -10 -15 -10 -25 0 -23 -18 -36 -32 -22 -7 7 -19 7
-36 1 -14 -5 -31 -8 -37 -5 -7 2 -20 37 -29 78 -10 40 -24 90 -32 111 -31 83
-1 233 58 282 33 28 83 33 92 9z m1825 -27 c0 -9 -2 -9 -6 0 -3 10 -10 10 -26
2 -21 -10 -21 -9 -3 5 20 16 37 13 35 -7z m-1829 -116 c0 -10 -7 -24 -16 -32
-25 -21 -54 -86 -54 -122 0 -21 7 -41 19 -51 11 -10 17 -25 14 -34 -5 -12 -11
-10 -30 12 -40 47 -27 183 23 233 26 26 44 23 44 -6z m61 -137 l-3 -48 -19 23
c-23 28 -24 40 -3 70 22 30 30 15 25 -45z m1752 27 c17 -14 20 -14 33 4 8 10
14 15 14 9 0 -5 -9 -20 -20 -34 -22 -29 -26 -56 -7 -64 8 -4 7 -5 -3 -5 -28 2
-43 -1 -37 -7 8 -8 -24 -64 -35 -64 -12 0 -10 7 9 26 13 12 14 19 6 21 -10 4
-10 9 0 24 6 10 17 19 22 19 6 0 11 9 11 20 0 11 -6 20 -13 20 -20 0 -15 20 5
21 14 0 14 2 -3 9 -14 5 -24 3 -34 -9 -13 -15 -13 -14 -7 2 3 10 6 23 6 28 0
11 30 0 53 -20z m-41 -63 c-9 -9 -12 -7 -12 12 0 19 3 21 12 12 9 -9 9 -15 0
-24z m88 -2 c-14 -14 -24 0 -16 21 6 15 8 15 16 3 6 -9 5 -19 0 -24z m-3 -42
c-3 -3 -12 -4 -19 -1 -8 3 -5 6 6 6 11 1 17 -2 13 -5z m-24 -45 c-3 -12 -11
-15 -21 -11 -15 5 -15 3 -4 -11 14 -17 7 -42 -9 -32 -5 4 -9 2 -9 -3 0 -14 39
-22 46 -10 6 10 33 -20 34 -37 0 -5 -4 -4 -8 3 -5 7 -16 10 -26 6 -16 -6 -16
-8 -3 -15 9 -5 14 -20 12 -34 -1 -14 2 -25 7 -25 6 0 7 -7 4 -16 -3 -8 -2 -12
4 -9 14 9 12 -9 -2 -23 -9 -9 -9 -12 1 -12 7 0 9 -5 6 -10 -4 -6 -11 -8 -16
-5 -5 4 -9 1 -9 -4 0 -6 5 -11 10 -11 6 0 10 -4 10 -8 0 -5 -7 -9 -15 -9 -8 0
-15 4 -15 9 0 4 -4 8 -9 8 -4 0 -6 -11 -4 -24 6 -28 -12 -42 -32 -26 -20 17
-19 30 3 31 15 1 16 2 0 6 -10 2 -15 10 -11 19 4 10 0 12 -12 8 -16 -6 -17 -3
-11 28 4 22 1 48 -9 71 -8 20 -15 44 -14 54 0 10 3 13 5 6 3 -7 12 -9 20 -6
11 4 12 9 3 19 -8 10 -8 14 0 14 6 0 11 7 11 15 0 9 7 26 16 40 18 27 54 31
47 4z m-1585 -203 c1 -18 8 -52 15 -74 13 -36 12 -42 -2 -56 -10 -11 -11 -16
-3 -16 7 0 12 -10 13 -22 0 -22 1 -22 8 -3 5 12 4 23 -3 28 -7 5 -4 7 7 5 19
-3 63 -88 46 -88 -14 0 -43 -30 -35 -37 3 -3 12 -1 19 6 16 13 47 5 47 -12 0
-7 -4 -7 -12 1 -15 15 -32 16 -23 1 4 -5 18 -14 31 -19 19 -8 24 -17 24 -45 0
-19 3 -35 8 -35 4 0 12 -12 19 -26 7 -15 10 -24 7 -21 -3 3 -18 1 -33 -4 -21
-8 -24 -8 -13 2 14 15 16 33 3 24 -5 -3 -12 -1 -16 5 -9 14 -25 3 -19 -13 2
-7 -6 -13 -21 -13 -14 -1 -25 2 -25 6 0 5 -3 15 -6 24 -4 11 -1 16 11 16 12 0
15 -5 10 -21 -7 -20 -6 -20 14 -2 21 18 28 43 12 43 -5 0 -11 -5 -13 -10 -2
-6 -13 -3 -27 6 -18 13 -20 18 -10 25 11 7 11 11 1 17 -7 5 -11 23 -9 43 2 19
-3 40 -11 48 -7 8 -11 22 -9 33 3 10 1 16 -4 12 -5 -3 -9 7 -9 21 0 17 -4 24
-12 19 -8 -5 -9 0 -6 14 4 12 2 24 -3 27 -11 7 -8 55 4 55 4 0 3 9 -3 21 -13
24 -7 49 13 49 9 0 14 -12 15 -34z m1602 -451 c6 3 7 -1 4 -9 -6 -16 -24 -22
-24 -8 0 4 -3 18 -5 32 -6 25 -6 25 5 2 5 -13 14 -21 20 -17z m-696 -12 c-12
-13 -18 -13 -27 -3 -9 10 -9 11 1 6 7 -4 15 -1 18 8 3 9 10 13 15 10 5 -3 2
-12 -7 -21z m730 -14 c-3 -5 -10 -7 -15 -3 -5 3 -7 10 -3 15 3 5 10 7 15 3 5
-3 7 -10 3 -15z m-9 -29 c3 -5 -1 -10 -10 -10 -9 0 -13 5 -10 10 3 6 8 10 10
10 2 0 7 -4 10 -10z m90 -20 c3 -5 1 -10 -4 -10 -6 0 -11 5 -11 10 0 6 2 10 4
10 3 0 8 -4 11 -10z m-88 -32 c-3 -7 -5 -2 -5 12 0 14 2 19 5 13 2 -7 2 -19 0
-25z m-2057 -92 c0 -8 4 -16 8 -18 4 -1 30 -34 57 -73 28 -38 74 -94 103 -122
l54 -53 -62 0 c-60 0 -64 2 -114 46 -28 25 -63 66 -77 91 l-27 45 20 49 c20
47 38 64 38 35z"/>
<path d="M1222 2105 c0 -16 2 -22 5 -12 2 9 2 23 0 30 -3 6 -5 -1 -5 -18z"/>
<path d="M734 2071 c-5 -6 -20 -12 -34 -14 -14 -3 -38 -12 -55 -21 -16 -9 -35
-16 -41 -16 -15 0 -66 -55 -57 -63 3 -4 15 0 25 10 10 9 18 13 18 9 0 -4 15 1
33 11 32 20 91 22 272 10 33 -2 66 -2 73 1 18 6 15 50 -5 56 -52 16 -217 28
-229 17z"/>
<path d="M790 1968 c0 -5 -9 -6 -20 -3 -12 4 -26 2 -33 -3 -7 -6 -29 -13 -49
-17 -53 -10 -108 -62 -108 -102 0 -37 56 -163 72 -163 4 0 18 -10 32 -23 14
-14 39 -24 61 -25 21 -2 40 -3 44 -4 9 -2 93 22 114 33 25 13 84 1 93 -19 10
-24 13 -95 5 -107 -4 -5 -13 -30 -20 -55 -7 -25 -16 -47 -20 -50 -17 -13 -59
-89 -66 -119 -10 -45 -30 -82 -41 -73 -4 4 -2 -1 5 -10 9 -13 10 -22 3 -30 -7
-9 -7 -28 -1 -58 6 -25 10 -53 10 -62 0 -10 5 -18 11 -18 5 0 8 -7 4 -15 -4
-10 1 -15 15 -15 11 0 18 4 15 9 -4 5 3 7 13 4 11 -3 17 -11 15 -18 -6 -15 23
-24 66 -21 16 1 30 -1 30 -5 0 -19 41 -3 47 19 5 22 31 26 26 3 -2 -6 2 -11 8
-11 6 0 9 7 5 15 -3 9 0 15 10 15 9 0 12 5 8 13 -6 8 -3 8 9 -1 9 -8 16 -17
15 -20 -2 -17 3 -32 10 -32 4 0 8 11 8 25 3 48 11 57 36 44 13 -7 40 -13 60
-14 28 -1 38 3 42 18 2 10 9 16 15 12 7 -3 11 2 11 14 0 12 3 21 8 21 11 0 37
61 38 90 0 14 -7 43 -17 65 l-18 40 0 -37 c-1 -21 -5 -38 -11 -38 -5 0 -7 -7
-4 -15 7 -18 -13 -45 -33 -45 -8 0 -21 7 -29 15 -9 8 -13 15 -9 15 3 0 0 6 -7
14 -7 8 -16 12 -20 9 -5 -2 -8 1 -8 7 0 7 -7 7 -22 -2 -30 -16 -40 -16 -56 -1
-7 7 -22 13 -33 13 -10 0 -19 5 -19 11 0 5 -4 8 -9 5 -5 -4 -7 3 -4 14 4 15 0
20 -13 20 -16 0 -17 2 -4 10 13 9 13 11 0 21 -12 8 -12 12 -2 16 10 4 10 8 1
19 -6 8 -8 14 -3 14 5 0 10 15 11 33 1 17 4 70 6 117 3 50 1 90 -5 98 -7 8 -7
12 2 12 8 0 9 4 3 13 -5 6 -8 27 -6 45 2 23 -1 31 -8 26 -8 -5 -10 3 -7 24 2
17 1 29 -3 27 -4 -3 -13 3 -20 12 -9 10 -9 14 -2 10 8 -5 7 2 -2 20 -8 15 -15
33 -15 38 0 13 -76 85 -90 85 -5 0 -10 5 -10 11 0 6 -8 8 -19 4 -12 -4 -21 0
-25 11 -5 12 -9 14 -20 5 -7 -6 -16 -8 -19 -5 -11 11 -57 13 -57 2z m129 -165
c31 -46 39 -69 22 -58 -5 3 -17 -3 -27 -12 -17 -17 -16 -18 12 -24 16 -4 23
-7 15 -8 -8 0 -23 -9 -33 -18 -18 -16 -19 -16 -25 5 -5 22 -23 31 -23 12 0 -5
-4 -10 -8 -10 -5 0 2 23 16 51 22 43 24 56 15 80 -17 44 1 35 36 -18z m-64 9
c0 -18 -20 -15 -23 4 -3 10 1 15 10 12 7 -3 13 -10 13 -16z"/>
<path d="M1415 1931 c-27 -10 -55 -16 -62 -14 -6 2 -19 -9 -29 -26 -10 -17
-22 -31 -25 -31 -11 0 -39 -60 -39 -83 0 -11 8 -38 18 -58 16 -37 30 -44 74
-41 10 1 34 -7 54 -18 19 -11 39 -18 44 -15 5 3 11 1 15 -5 4 -6 10 -8 13 -6
4 2 29 0 55 -5 33 -6 56 -5 75 3 50 22 122 115 122 158 0 22 -40 74 -89 116
-35 31 -48 35 -108 39 -49 3 -82 -1 -118 -14z m19 -103 c-9 -28 -9 -34 -1 -78
6 -29 3 -37 -14 -48 -14 -9 -24 -10 -33 -3 -7 6 -16 8 -19 4 -4 -3 -7 1 -7 11
0 13 5 16 19 11 11 -3 22 -1 26 4 3 6 -6 13 -20 17 -31 8 -35 44 -4 44 12 0
17 4 14 11 -7 11 22 49 37 49 5 0 6 -10 2 -22z m46 -12 c0 -8 -4 -17 -9 -21
-12 -7 -24 12 -16 25 9 15 25 12 25 -4z"/>
<path d="M1295 1200 c3 -5 11 -10 16 -10 6 0 7 5 4 10 -3 6 -11 10 -16 10 -6
0 -7 -4 -4 -10z"/>
<path d="M715 1100 c3 -5 8 -10 11 -10 2 0 4 5 4 10 0 6 -5 10 -11 10 -5 0 -7
-4 -4 -10z"/>
<path d="M839 1093 c-13 -16 -12 -17 4 -4 9 7 17 15 17 17 0 8 -8 3 -21 -13z"/>
<path d="M845 1029 c-4 -6 -5 -12 -2 -15 2 -3 7 2 10 11 7 17 1 20 -8 4z"/>
<path d="M1020 915 c-14 -8 -33 -12 -43 -9 -11 4 -26 -3 -38 -17 -10 -12 -19
-18 -19 -14 0 4 -8 1 -17 -8 -10 -8 -29 -17 -42 -19 -17 -2 -28 -12 -34 -33
-6 -16 -16 -34 -23 -38 -29 -17 -16 -26 126 -90 68 -30 88 -34 201 -40 l125
-7 65 31 c72 35 118 75 119 102 0 27 -50 108 -63 100 -6 -3 -35 -7 -64 -8 -45
-1 -57 2 -70 19 -10 14 -17 17 -20 9 -3 -7 -14 -13 -26 -13 -20 1 -20 2 -4 11
32 19 19 31 -24 24 -23 -4 -39 -3 -36 1 9 15 -87 14 -113 -1z m258 -155 c10
-1 4 -7 -13 -14 -16 -7 -33 -11 -38 -9 -4 2 -10 -3 -13 -11 -8 -20 -24 -11
-24 14 0 16 6 18 35 15 24 -3 33 -1 31 8 -1 6 -1 9 1 5 3 -5 12 -8 21 -8z"/>
<path d="M802 880 c0 -14 2 -19 5 -12 2 6 2 18 0 25 -3 6 -5 1 -5 -13z"/>
<path d="M820 860 c0 -5 5 -10 10 -10 6 0 10 5 10 10 0 6 -4 10 -10 10 -5 0
-10 -4 -10 -10z"/>
<path d="M1703 2563 c-15 -5 -17 -23 -4 -23 5 0 11 7 15 15 3 8 4 15 3 14 -1
0 -8 -3 -14 -6z"/>
<path d="M1730 2500 c0 -5 5 -10 10 -10 6 0 10 5 10 10 0 6 -4 10 -10 10 -5 0
-10 -4 -10 -10z"/>
<path d="M1856 2495 c-3 -8 -1 -15 4 -15 13 0 22 18 11 24 -5 3 -11 -1 -15 -9z"/>
<path d="M1755 2479 c-10 -15 3 -25 16 -12 7 7 7 13 1 17 -6 3 -14 1 -17 -5z"/>
<path d="M1826 2433 c-4 -9 -2 -21 4 -27 7 -7 10 -2 10 17 0 31 -5 34 -14 10z"/>
<path d="M1932 2348 c5 -15 28 -18 29 -3 0 6 -7 12 -17 13 -10 3 -15 -1 -12
-10z"/>
<path d="M2010 1880 c0 -5 5 -10 10 -10 6 0 10 5 10 10 0 6 -4 10 -10 10 -5 0
-10 -4 -10 -10z"/>
<path d="M630 739 c0 -11 4 -18 10 -14 5 3 7 12 3 20 -7 21 -13 19 -13 -6z"/>
<path d="M630 638 c0 -4 4 -8 9 -8 5 0 11 -9 14 -20 3 -11 10 -20 16 -20 7 0
6 9 -4 23 -8 13 -13 26 -10 29 3 2 -2 5 -10 5 -8 0 -15 -4 -15 -9z"/>
<path d="M690 560 c0 -5 5 -10 11 -10 5 0 7 5 4 10 -3 6 -8 10 -11 10 -2 0 -4
-4 -4 -10z"/>
</g>
</svg>
